<svg xmlns="http://www.w3.org/2000/svg" viewBox="0 0 1012 202">
  <g id="_Layer_2" data-name="&lt;Layer&gt;">
    <path d="M276.18,95.72A30.4,30.4,0,0,0,260.8,90.6H45L36.8,128.91H161.69a27.25,27.25,0,0,0-10.78-21.49c7.47-2.16,13.72-8,17.77-15.44a56.19,56.19,0,0,0-.44,6.27c-.18,11.41,4.81,19.52,12,25.29,1.45,1.1,7.88,5.37,20.52,5.37h87.08a95.6,95.6,0,0,0,.83-9.8C289,109,283.54,101.36,276.18,95.72Zm-55.64-52.5c-1.49,0-13.92.24-22.18,4.8s-18.8,13-24.92,26.27c.21-9.45-3.29-18.94-12-25.59C155.07,44.15,144.83,43.15,139,43h-4.5l-79.32.26L47,81.18l248.09,0,8.29-38.2ZM26.85,175.38s83-.32,98.14-.32c11.68,0,28.33-15.43,34.4-32.78l-7.15,32.83h82.92c16,0,24.5-3.26,25.78-3.83,12.72-6.15,21.05-17.74,25-32.89H34.77Z" style="fill: #d70929"/>
    <g>
      <path d="M347.93,87.29h19.55c4.54,0,12.42,1.87,12.42,10.69,0,6.28-4.6,11-11.54,11.83v.13c5.05.8,8.52,3.88,8.52,9,0,9.89-8,14.57-18.1,14.7l-20,.27Zm4.16,37.82h3.16c5.92,0,9.9-1.74,9.9-6.28,0-4.08-2.78-4.68-8.07-4.68h-2.84Zm3.85-19.38h4.41c4.92,0,7.82-2.07,7.82-5.28,0-3.74-2.9-4.34-7.31-4.34h-3Z" style="fill: #1d1d1b"/>
      <path d="M393.9,87.29h31l-1.71,8.82H403.8l-2,9.62h18.35l-1.83,8.82H400l-2.14,10.56H418l-1.7,8.82H384.44Z" style="fill: #1d1d1b"/>
      <path d="M440.74,96.51h-11l1.89-9.22h33.86l-1.89,9.22h-11l-7.5,37.42H433.24Z" style="fill: #1d1d1b"/>
      <path d="M483,87.29h14.75l7.19,46.64H493.06l-1.2-10H474.77l-5.23,10H456.8Zm5.86,9.62h-.13l-9.33,18.24h11.35Z" style="fill: #1d1d1b"/>
      <path d="M520.13,87.29h11.92l-7.31,37.42h18.41l-1.83,9.22H511Z" style="fill: #1d1d1b"/>
      <path d="M556.71,87.29h11.85l-9.14,46.64H547.56Z" style="fill: #1d1d1b"/>
      <path d="M581.86,87.29h14.69l9,32.34h.12l6.18-32.34H623l-9.33,46.64H599l-9.2-32.28h-.13l-6.12,32.28h-11.1Z" style="fill: #1d1d1b"/>
      <path d="M669.82,98.25a28.14,28.14,0,0,0-12.74-2.54c-11.79,0-16.52,8.82-16.52,17.64,0,8.28,5,12.16,11,12.16a15,15,0,0,0,4.67-.8l1.95-9.22h-7l1.7-8.82h18.47l-5.23,26a61.29,61.29,0,0,1-15.32,2.07c-14.19,0-22.32-8.89-22.32-21.72,0-15.5,8.76-26.53,29.19-26.53a52.43,52.43,0,0,1,14.69,2.28Z" style="fill: #1d1d1b"/>
      <path d="M713.06,97.52a23.33,23.33,0,0,0-9.41-2.28c-4.66-.33-8.86,1.2-8.86,4.94,0,6.62,17.09,4.15,17.09,18.31,0,12.9-11.29,16.24-21.51,16.24a46.75,46.75,0,0,1-13.62-2.4l2.7-8.67a27.84,27.84,0,0,0,11.21,2.27c3.65,0,9.11-1.15,9.11-6,0-7.48-17.09-4.67-17.09-17.84,0-12,10-15.64,19.61-15.64,5.42,0,10.25,1,13.21,2.43Z" style="fill: #1d1d1b"/>
      <path d="M751.25,95.29A15.25,15.25,0,0,0,742.93,93c-4.35,0-9.14,1.74-9.28,7.29-.21,7.82,15.49,7.23,15.17,19.46-.18,7-5.2,15-16.27,15a32,32,0,0,1-12.78-2.67l2.27-6.15a18.7,18.7,0,0,0,9.61,2.94c7,0,10.06-4.41,10.17-8.28.24-9.49-15.5-7.17-15.16-20.14.22-8.48,8-13.3,15.57-13.3a28.13,28.13,0,0,1,11,2.21Z" style="fill: #1d1d1b"/>
      <path d="M767.31,87.29h23.9l-1.32,5.88h-17.4l-3,13.63h16.33l-1.13,5.88H768.22l-3.35,15.37h18.48l-1.25,5.88H757.26Z" style="fill: #1d1d1b"/>
      <path d="M805.27,87.29h8.64c6.18,0,16.46,0,16.35,11.36a13,13,0,0,1-10.82,12.63c3.32,2.2,4.2,9.22,5,12.83l2.31,9.82h-6.68l-2.54-12.23c-1.57-7.48-2.64-8.49-5.92-8.49h-5.61l-4.28,20.72h-6.3Zm2.09,20h5c4.47,0,11.17-1.53,11.22-7.75,0-4.88-2.53-6.41-7.38-6.41h-5.86Z" style="fill: #1d1d1b"/>
      <path d="M855.12,133.93h-7.57l-6.72-46.64h6.31l5.2,40h.12l22.55-40h6.93Z" style="fill: #1d1d1b"/>
      <path d="M891.09,87.29h6.37l-9.87,46.64h-6.37Z" style="fill: #1d1d1b"/>
      <path d="M933.81,133.46a25.56,25.56,0,0,1-8.08,1.27c-11.73,0-20.63-6.55-20.5-21.31.1-11.43,7.68-26.94,26.66-26.94a26.91,26.91,0,0,1,10.45,2.14l-1.88,5.75a20.67,20.67,0,0,0-8.5-2c-13.37,0-20,10.42-20.05,21.38-.08,10.22,6.3,15.1,14.88,15.1a20.09,20.09,0,0,0,7.89-1.6Z" style="fill: #1d1d1b"/>
      <path d="M954.77,87.29h23.9l-1.32,5.88H960l-3,13.63h16.33l-1.13,5.88H955.68l-3.35,15.37h18.48l-1.25,5.88H944.71Z" style="fill: #1d1d1b"/>
    </g>
  </g>
</svg>
