<svg id="Layer_1" data-name="Layer 1" xmlns="http://www.w3.org/2000/svg" xmlns:xlink="http://www.w3.org/1999/xlink" viewBox="0 0 557.45 368.5">
  <defs>
    <clipPath id="clip-path">
      <rect id="SVGID" x="40.07" y="25.19" width="481.23" height="318.12" style="fill: none"/>
    </clipPath>
  </defs>
  <g style="clip-path: url(#clip-path)">
    <g style="clip-path: url(#clip-path)">
      <path d="M185.05,42.19C106.71,42.19,43,105.92,43,184.25s63.73,142.06,142.07,142.06H376.39c78.32,0,142.05-63.73,142.05-142.06S454.71,42.19,376.39,42.19Z" style="fill: #fff"/>
      <path d="M376.39,329.2H185.05c-79.93,0-145-65-145-144.95s65-144.94,145-144.94H376.39c79.92,0,144.93,65,144.93,144.94s-65,145-144.93,145m-191.34-287C106.71,42.19,43,105.92,43,184.25s63.73,142.06,142.07,142.06H376.39c78.32,0,142.05-63.73,142.05-142.06S454.71,42.19,376.39,42.19Z" style="fill: #fff"/>
      <path d="M409.83,175.57l63.63,75.67a117.74,117.74,0,0,0-2.26-137.12Z" style="fill: #dc0d19"/>
      <path d="M229.54,107.73c47.51,0,83.31,12.09,87,52.12l50-52.13h99.57a117.78,117.78,0,0,0-89.72-41.45H185.05a117.77,117.77,0,0,0-89.74,41.46Z" style="fill: #dc0d19"/>
      <path d="M151.26,158.19l-17,46.65h68.46c20.23,0,26.36-8.37,30.88-24.5,4.49-16-6.77-22.15-20.6-22.15Z" style="fill: #dc0d19"/>
      <path d="M367,257.61l-52.89-66.84c-9.78,45.57-41.79,66.83-101.79,66.83H92.69a117.83,117.83,0,0,0,92.36,44.64H376.38a117.84,117.84,0,0,0,92.35-44.63Z" style="fill: #dc0d19"/>
    </g>
  </g>
</svg>
