<svg xmlns="http://www.w3.org/2000/svg" xmlns:xlink="http://www.w3.org/1999/xlink" viewBox="0 0 229.31 79.46">
  <defs>
    <linearGradient id="linear-gradient" x1="34.16" y1="40.68" x2="52.99" y2="31.03" gradientUnits="userSpaceOnUse">
      <stop offset="0" stop-color="#504678"/>
      <stop offset="0.55" stop-color="#504678" stop-opacity="0.41"/>
      <stop offset="0.97" stop-color="#504678" stop-opacity="0"/>
    </linearGradient>
  </defs>
  <g style="isolation: isolate">
    <g id="Layer_1" data-name="Layer 1">
      <g>
        <path d="M88.65,47l5.28-16.7a.54.54,0,0,1,.49-.41h2.65a.65.65,0,0,1,.52.41L101.7,40.8c.08.21.29.24.36,0l4.09-10.53a.65.65,0,0,1,.52-.41h2.65a.55.55,0,0,1,.49.41L115,47a.4.4,0,0,1-.39.57h-3.15a.46.46,0,0,1-.47-.37l-3.35-10.84c0-.21-.29-.21-.37,0l-4,10.77a.59.59,0,0,1-.57.44h-1.85a.55.55,0,0,1-.54-.44L96.27,36.33c-.08-.21-.29-.21-.34,0L92.5,47.17a.47.47,0,0,1-.5.37H89A.39.39,0,0,1,88.65,47Z" style="fill: #fff"/>
        <path d="M116,41a7,7,0,1,1,7,6.87A6.77,6.77,0,0,1,116,41Zm10.4,0a3.44,3.44,0,1,0-6.86,0,3.44,3.44,0,1,0,6.86,0Z" style="fill: #fff"/>
        <path d="M136.18,46.47c-.26-.21-.5-.13-.5.24V47a.5.5,0,0,1-.47.5h-2.44a.51.51,0,0,1-.49-.5V30.35a.5.5,0,0,1,.49-.49h2.57a.49.49,0,0,1,.47.49v4.76c0,.34.24.44.6.18a5.71,5.71,0,0,1,3.41-1.14c3.56,0,6.29,3,6.29,6.86a6.56,6.56,0,0,1-6.4,6.87A5.31,5.31,0,0,1,136.18,46.47ZM142.57,41a3.44,3.44,0,1,0-6.86,0,3.49,3.49,0,0,0,3.4,3.62A3.53,3.53,0,0,0,142.57,41Z" style="fill: #fff"/>
        <path d="M148.27,31.08a2,2,0,1,1,2,2A2,2,0,0,1,148.27,31.08Zm.18,16V35a.49.49,0,0,1,.47-.49h2.57A.5.5,0,0,1,152,35V47a.51.51,0,0,1-.49.5h-2.57A.5.5,0,0,1,148.45,47Z" style="fill: #fff"/>
        <path d="M154.88,43.12V30.35a.49.49,0,0,1,.47-.49h2.57a.51.51,0,0,1,.5.49V43.2c0,.83.36,1.38,1.27,1.38a.48.48,0,0,1,.49.49V47.2a.49.49,0,0,1-.49.47C156.26,47.67,154.88,46.55,154.88,43.12Z" style="fill: #fff"/>
        <path d="M161.12,41.06a6.77,6.77,0,1,1,13.53.06c0,.46-.13.85-.6.85h-9c-.23,0-.31.13-.28.34A3,3,0,0,0,168,44.89a3.2,3.2,0,0,0,2.47-1.12,1,1,0,0,1,.83-.42h2.39c.42,0,.6.29.44.7a6.85,6.85,0,0,1-13-3Zm9.49-1.19c.19,0,.26-.08.24-.29a3,3,0,0,0-3-2.44,3.08,3.08,0,0,0-3,2.36c0,.19,0,.37.21.37Z" style="fill: #fff"/>
        <path d="M176.8,47V30.35a.49.49,0,0,1,.47-.49h8.19c3.74,0,6.29,2.18,6.29,5.85s-2.88,5.93-6.47,5.93h-4.34a.43.43,0,0,0-.47.49V47a.52.52,0,0,1-.5.5h-2.7A.5.5,0,0,1,176.8,47Zm8.48-8.42a2.82,2.82,0,0,0,2.78-2.89A2.67,2.67,0,0,0,185.28,33h-4.37c-.31,0-.44.16-.44.47v4.73c0,.31.13.47.44.47Z" style="fill: #fff"/>
        <path d="M193,41a6.62,6.62,0,0,1,6.45-6.86,5.27,5.27,0,0,1,3.46,1.32c.23.21.49.19.49-.13V35a.46.46,0,0,1,.47-.47h2.44a.51.51,0,0,1,.5.49v8.61c0,.65.23.93.67,1a.46.46,0,0,1,.45.41v2.27a.45.45,0,0,1-.45.44c-1.71,0-2.73-.5-3.3-1.48-.15-.26-.34-.32-.6-.06a5.7,5.7,0,0,1-4.18,1.75A6.59,6.59,0,0,1,193,41Zm10.4,0a3.43,3.43,0,1,0-6.84,0,3.43,3.43,0,1,0,6.84,0Z" style="fill: #fff"/>
        <path d="M209.14,52.12V50a.5.5,0,0,1,.5-.47,3.64,3.64,0,0,0,3.74-2.5,1.5,1.5,0,0,0-.1-1l-4.79-10.81a.48.48,0,0,1,.42-.7h2.57c.26,0,.42.2.52.47l3,6.91c.21.55.55.52.78,0l2.86-6.94c.11-.26.24-.41.5-.41h2.47a.45.45,0,0,1,.44.62l-4.91,11.68c-1.8,4.23-3.7,5.82-7.49,5.82A.52.52,0,0,1,209.14,52.12Z" style="fill: #fff"/>
      </g>
      <g>
        <rect x="18.53" y="9.2" width="31.33" height="61.11" rx="4.26" transform="translate(-12.61 16.11) rotate(-22.5)" style="fill: none;stroke: #fff;stroke-linecap: round;stroke-linejoin: round;stroke-width: 3.13705428086215px"/>
        <g style="mix-blend-mode: multiply;opacity: 0.5">
          <image width="50" height="97" transform="translate(46.9 32.22) scale(0.24)" xlink:href="Logo+Type%20Horisontal%20White1.png"/>
        </g>
        <g style="mix-blend-mode: multiply;opacity: 0.5">
          <image width="47" height="86" transform="translate(38.26 12.06) scale(0.24)" xlink:href="Logo+Type%20Horisontal%20White2.png"/>
        </g>
        <path d="M52.28,41c-6,2.5-11.06,5.95-14.36,10.1l-8.5-20.53A35.93,35.93,0,0,1,43.78,20.47c6-2.5,12.12-3.71,17.3-3L69.58,38A35.86,35.86,0,0,0,52.28,41Z" style="fill: #fff"/>
        <g style="mix-blend-mode: multiply;opacity: 0.25">
          <path d="M52.28,41c-6,2.5-11.06,5.95-14.36,10.1l-8.5-20.53A35.93,35.93,0,0,1,43.78,20.47c6-2.5,12.12-3.71,17.3-3L69.58,38A35.86,35.86,0,0,0,52.28,41Z" style="mix-blend-mode: multiply;fill: url(#linear-gradient)"/>
          <image width="168" height="142" transform="translate(29.38 17.1) scale(0.24)" xlink:href="Logo+Type%20Horisontal%20White3.png" style="opacity: 0.7000000000000001"/>
        </g>
        <path d="M55.05,47.25c-6.53,0-12.5,1.26-17.13,3.83V30.33A35.78,35.78,0,0,1,55.05,26.5c6.53,0,12.62,1.2,17.13,3.84V51.09C67.43,48.51,61.58,47.25,55.05,47.25Z" style="fill: #fff"/>
      </g>
    </g>
  </g>
</svg>
