<svg id="Layer_1" data-name="Layer 1" xmlns="http://www.w3.org/2000/svg" viewBox="0 0 100 44.96"><defs><style>.cls-1{fill:#df544b;}.cls-2{font-size:19.2px;font-family:Montserrat-BlackItalic, Montserrat;font-weight:800;font-style:italic;}.cls-2,.cls-3{fill:#fff;}</style></defs><path class="cls-1" d="M19.26,9.63a4.45,4.45,0,0,1-4.57,4.62,5.26,5.26,0,0,1-3.28-1.09,4.24,4.24,0,0,1-1.3-5.38A10,10,0,0,1,14,3a2.34,2.34,0,0,1,3.42.52,8.31,8.31,0,0,1,1.62,4.14C19.19,8.31,19.21,9,19.26,9.63Z"/><path class="cls-1" d="M8.48,19.21a3.78,3.78,0,0,1-3.59,3.85A3.8,3.8,0,0,1,.64,19.57a6.87,6.87,0,0,1,1.68-4.63,9.6,9.6,0,0,1,.93-1,2,2,0,0,1,3.06.13A8.16,8.16,0,0,1,8.19,17.6C8.32,18.13,8.39,18.68,8.48,19.21Z"/><path class="cls-1" d="M24.34,8.67a4.45,4.45,0,0,0,4.57,4.62A5.29,5.29,0,0,0,32.2,12.2a4.23,4.23,0,0,0,1.29-5.37A10,10,0,0,0,29.57,2a2.36,2.36,0,0,0-3.43.52A8.33,8.33,0,0,0,24.53,6.7C24.42,7.35,24.4,8,24.34,8.67Z"/><path class="cls-1" d="M34.75,17.31a3.93,3.93,0,0,0,7.84.35A6.85,6.85,0,0,0,40.9,13a7.82,7.82,0,0,0-.93-1,2,2,0,0,0-3.06.14A8.21,8.21,0,0,0,35,15.69C34.9,16.22,34.84,16.77,34.75,17.31Z"/><text class="cls-2" transform="translate(42.04 41.94)">NIMA</text><path class="cls-3" d="M21.92,27.7H24"/><path class="cls-1" d="M39.64,31a32.62,32.62,0,0,0-5.23-8.23,32.94,32.94,0,0,0-8.65-7.3,7.94,7.94,0,0,0-3.61-1.23l-.06,4.19.05-4.19a8.42,8.42,0,0,0-3.7,1.12,31.88,31.88,0,0,0-8.52,7.06,32.85,32.85,0,0,0-5.26,8.09C3,34,4.25,37.29,6.43,40s3.86,3.62,7.1,2.93c2.2-.48,2.24-1.46,2.54-2.64.47-1.81,1.14-5.85,1.5-7.69s1.12-2.21,2.75-2.25l1.6,0h0l1.47.07c1.69.09,2.46.51,2.79,2.33s.9,5.91,1.34,7.73c.28,1.19.29,2.17,2.56,2.71,3.35.79,5.13-.09,7.45-2.72S41.23,34.5,39.64,31Zm-14-3.31c-.24,0-.49,0-.73,0H19c-.24,0-.49,0-.73,0a.19.19,0,0,1-.19-.23c0-.2.1-.39.15-.58l.22-.87.44-1.73h0s.38-1.24,3.05-1.21h0c2.68,0,3,1.18,3,1.21h0L25.41,26l.22.87c.05.19.11.38.15.58A.19.19,0,0,1,25.59,27.7Z"/></svg>